<?xml version="1.0" encoding="utf-8"?>
<!-- Generator: Adobe Illustrator 18.1.1, SVG Export Plug-In . SVG Version: 6.00 Build 0)  -->
<svg version="1.1" id="Layer_1" xmlns="http://www.w3.org/2000/svg" xmlns:xlink="http://www.w3.org/1999/xlink" x="0px" y="0px"
	 viewBox="0 0 93.9 96" enable-background="new 0 0 93.9 96" xml:space="preserve">
<g>
	<defs>
		<rect id="SVGID_1_" x="0" y="1" width="93.9" height="93.9"/>
	</defs>
	<clipPath id="SVGID_2_">
		<use xlink:href="#SVGID_1_"  overflow="visible"/>
	</clipPath>
	<path clip-path="url(#SVGID_2_)" fill="#537856" d="M16.4,24.5c-3.9,0-7-3.1-7-7c0-3.9,3.1-7,7-7c3.9,0,7,3.1,7,7
		C23.4,21.3,20.3,24.5,16.4,24.5z M90.9,45.9L48.8,3.8C47.1,2.1,44.7,1,42.2,1H9.4C4.2,1,0,5.2,0,10.4v32.8c0,2.6,1.1,4.9,2.8,6.6
		L44.9,92c1.7,1.7,4,2.7,6.6,2.7s4.9-1.1,6.6-2.7l32.8-32.8c1.7-1.7,2.7-4.1,2.7-6.6C93.7,50,92.6,47.6,90.9,45.9L90.9,45.9z"/>
</g>
</svg>
