<?xml version="1.0" encoding="utf-8"?>
<!-- Generator: Adobe Illustrator 18.1.1, SVG Export Plug-In . SVG Version: 6.00 Build 0)  -->
<svg version="1.1" id="Layer_1" xmlns="http://www.w3.org/2000/svg" xmlns:xlink="http://www.w3.org/1999/xlink" x="0px" y="0px"
	 viewBox="0 0 228.7 106.8" enable-background="new 0 0 228.7 106.8" xml:space="preserve">
<g>
	<defs>
		<rect id="SVGID_1_" x="0" width="228.7" height="111.8"/>
	</defs>
	<clipPath id="SVGID_2_">
		<use xlink:href="#SVGID_1_"  overflow="visible"/>
	</clipPath>
	<path clip-path="url(#SVGID_2_)" fill="#537856" d="M26.1,0c-0.7,0-1.3,0.3-1.8,0.8L0.7,24.7c-1,1-1,2.6,0,3.6l23.6,23.9
		c1,1,2.6,1,3.6,0c1-1,1-2.6,0-3.6L8.8,29.1h37.9c1.4,0,2.6-1.1,2.6-2.5c0-1.4-1.1-2.6-2.5-2.6c0,0,0,0-0.1,0h-38L28,4.4
		c1-1,1.1-2.6,0.1-3.6C27.5,0.2,26.8-0.1,26.1,0 M202.3,0c-1.4,0.1-2.5,1.3-2.4,2.7c0,0.6,0.3,1.2,0.8,1.7L220.1,24h-38
		c-0.2,0-0.3,0-0.5,0c-1.4,0.1-2.4,1.4-2.3,2.8c0.1,1.4,1.4,2.4,2.8,2.3h37.9l-19.2,19.5c-1,1-1,2.6,0.1,3.6c1,1,2.6,1,3.6,0
		L228,28.3c1-1,1-2.6,0-3.6L204.4,0.8C203.8,0.2,203.1-0.1,202.3,0z M2.6,68.2c-1.4,0-2.5,1.1-2.5,2.5c0,0,0,0,0,0.1v38.5
		c0,1.4,1.1,2.5,2.5,2.5h223.6c1.4,0,2.5-1.1,2.5-2.5V70.8c0-1.4-1.1-2.6-2.5-2.6c-1.4,0-2.6,1.1-2.6,2.5c0,0,0,0,0,0.1v36h-29.5
		V87.5c0-1.4-1-2.6-2.5-2.6c-0.1,0-0.2,0-0.3,0c-1.3,0.1-2.4,1.3-2.3,2.6v19.3h-32.2V83.6c0-1.4-1.1-2.5-2.5-2.6c-0.1,0-0.2,0-0.3,0
		c-1.3,0.2-2.2,1.3-2.2,2.5v23.2h-34.9V87.5c0.1-1.4-1-2.6-2.4-2.6c-0.1,0-0.3,0-0.4,0c-1.3,0.2-2.3,1.3-2.2,2.6v19.3H76.9V83.6
		c0-1.4-1.1-2.5-2.5-2.6c-0.1,0-0.2,0-0.3,0c-1.3,0.2-2.2,1.3-2.2,2.5v23.2H39.7V87.5c0.1-1.4-1-2.6-2.4-2.6c-0.1,0-0.3,0-0.4,0
		c-1.3,0.2-2.3,1.3-2.2,2.6v19.3H5.1v-36C5.1,69.4,4,68.2,2.6,68.2C2.6,68.2,2.6,68.2,2.6,68.2z"/>
</g>
</svg>
