<?xml version="1.0" encoding="utf-8"?>
<!-- Generator: Adobe Illustrator 18.1.1, SVG Export Plug-In . SVG Version: 6.00 Build 0)  -->
<svg version="1.1" id="Layer_1" xmlns="http://www.w3.org/2000/svg" xmlns:xlink="http://www.w3.org/1999/xlink" x="0px" y="0px"
	 viewBox="0 0 131.5 96" enable-background="new 0 0 131.5 96" xml:space="preserve">
<g>
	<defs>
		<rect id="SVGID_1_" x="0" y="0" width="131.5" height="96"/>
	</defs>
	<clipPath id="SVGID_2_">
		<use xlink:href="#SVGID_1_"  overflow="visible"/>
	</clipPath>
	<path clip-path="url(#SVGID_2_)" fill="#537856" d="M128.6,0.8c-0.9-0.3-1.9,0-2.5,0.7c0,0.1-6.8,8.1-27.6,14.6
		c-11.8,3.4-21,12.6-24.4,24.4c-1.5,5.9-1,11.3,1.4,15.2c-3.7,4.8-6.3,10.4-7.6,16.4c-1-1.6-2.1-3.1-3.3-4.5
		c2.9-4.4,3.6-10.8,1.8-17.7C63.8,39.5,54.9,26.6,38,21.3C13.3,13.6,5.3,4,5.3,4c-0.6-0.7-1.6-1-2.5-0.7C1.9,3.5,1.2,4.3,1.2,5.3
		c0,1.6-1.3,40.2,11.9,56.8c7.7,9.8,18.2,15.7,28.5,16.1H43c6.9,0,13.5-2.6,18.6-7.2c7.3,9.1,8.8,23,8.8,23.2
		c0.1,1.2,1.1,2.1,2.3,2.1h0.2c0.6-0.1,1.2-0.3,1.5-0.8c0.4-0.5,0.6-1.1,0.5-1.7c-0.6-5.1-1.8-10-3.6-14.8c0.1-0.2,0.1-0.4,0.2-0.6
		c0-0.1,1.2-11.6,7.1-19.2c4.3,3.9,9.9,6.1,15.7,6.1h1.2c8.9-0.4,17.8-5.5,24.5-13.8c11.2-14.2,10.2-47,10.2-48.4
		C130.2,2,129.5,1.1,128.6,0.8 M41.9,73.6c-9.1-0.4-18.2-5.7-25.2-14.4C7.3,47.3,5.9,21.6,5.8,10.6c4.8,3.8,14.2,9.8,30.9,15
		c15.2,4.7,23,16.1,25.4,25.3c1.3,5.2,1,10-0.7,13.3c-2.5-2.1-5.3-3.6-8.4-4.5c-5.6-9.1-5.4-12.9-4.6-14.3c0.3-0.5,0.4-1.2,0.2-1.8
		c-0.2-0.6-0.6-1.1-1.2-1.4c-0.6-0.3-1.2-0.3-1.8-0.1c-0.6,0.2-1.1,0.7-1.3,1.2c-1.7,3.4-0.9,8.1,2.4,14.4
		c-14.3-5.1-18-13.7-20.7-20c-0.4-1-0.8-2-1.3-2.9c-0.2-0.6-0.7-1-1.3-1.2c-0.6-0.2-1.2-0.2-1.8,0.1c-0.6,0.3-1,0.7-1.2,1.3
		c-0.2,0.6-0.1,1.2,0.1,1.8c0.4,0.8,0.8,1.8,1.2,2.7c3.2,7.6,8.1,19,29.2,24.3c2.8,0.7,5.3,2,7.5,3.9C53.9,71.7,48,73.9,41.9,73.6z
		 M116.4,48.5c-5.8,7.3-13.5,11.8-21.1,12.1c-5,0.3-9.8-1.4-13.6-4.7c1.7-1.4,3.8-2.5,5.9-3c18.1-4.5,22.3-14.3,25-20.8
		c0.3-0.8,0.7-1.6,1-2.3c0.5-1.1,0.1-2.5-1.1-3c-1.1-0.5-2.5-0.1-3,1.1c-0.4,0.8-0.7,1.6-1.1,2.5c-2.3,5.6-5.2,12.4-16.6,16.6
		c2.5-5.1,3-8.9,1.6-11.8c-0.5-1.1-1.9-1.6-3-1.1c-1.1,0.6-1.6,1.9-1.1,3c0.6,1.2,0.8,4.3-3.8,11.7c-2.5,0.7-4.8,2-6.8,3.6
		c-1.3-3.4-1.4-7.1-0.4-10.6c3-10.3,11-18.3,21.3-21.2c13.7-4.2,21.6-9.1,25.8-12.4C125.5,17.7,124.2,38.7,116.4,48.5z"/>
</g>
</svg>
