<?xml version="1.0" encoding="utf-8"?>
<!-- Generator: Adobe Illustrator 18.1.1, SVG Export Plug-In . SVG Version: 6.00 Build 0)  -->
<svg version="1.1" id="Layer_1" xmlns="http://www.w3.org/2000/svg" xmlns:xlink="http://www.w3.org/1999/xlink" x="0px" y="0px"
	 viewBox="0 0 116.9 129.4" enable-background="new 0 0 116.9 129.4" xml:space="preserve">
<g>
	<defs>
		<rect id="SVGID_1_" x="0" y="0" width="116.9" height="129.4"/>
	</defs>
	<clipPath id="SVGID_2_">
		<use xlink:href="#SVGID_1_"  overflow="visible"/>
	</clipPath>
	<path clip-path="url(#SVGID_2_)" fill="#537856" d="M101.9,86l8.4-4.8c1.8-1,2.4-3.3,1.3-5.1c-1-1.8-3.3-2.4-5.1-1.3l-8.4,4.8
		c-1.8,1-2.4,3.3-1.3,5.1c0.7,1.2,2,1.8,3.2,1.8C100.7,86.6,101.4,86.4,101.9,86z"/>
	<path clip-path="url(#SVGID_2_)" fill="#537856" d="M113.7,93.5l-10.7,0.7c-2,0.1-3.6,1.9-3.5,3.9c0.1,2,1.8,3.5,3.7,3.5
		c0.1,0,0.1,0,0.2,0l10.7-0.7c2-0.1,3.6-1.9,3.5-3.9C117.5,94.9,115.7,93.3,113.7,93.5z"/>
	<path clip-path="url(#SVGID_2_)" fill="#537856" d="M86.7,75.8c0.6,0.4,1.3,0.6,2,0.6c1.2,0,2.4-0.6,3.1-1.7l5.9-9
		c1.1-1.7,0.7-4-1.1-5.1c-1.7-1.1-4-0.7-5.1,1.1l-5.9,9C84.4,72.4,84.9,74.7,86.7,75.8z"/>
	<path clip-path="url(#SVGID_2_)" fill="#537856" d="M40.2,3.2c-0.7-2-2.7-3-4.7-2.4c-2,0.7-3,2.8-2.4,4.7C42,32.1,62,64.5,84,88.1
		c4.7,5,3.9,13,1.1,18.6c-3,6.1-9.2,10.1-16.1,10.3c-7,0.3-12,0.5-12,0.5c-2,0.1-3.6,1.8-3.6,3.8c0.1,2,1.7,3.6,3.7,3.6
		c0.1,0,0.1,0,0.1,0c0,0,5.1-0.2,12.1-0.5c9.6-0.3,18.2-5.8,22.5-14.4c4-8,4.8-19.4-2.3-27C68.1,60.1,48.8,28.8,40.2,3.2z"/>
	<path clip-path="url(#SVGID_2_)" fill="#537856" d="M74.1,108.2c2,0.1,3.8-1.4,4-3.4c0.1-2-1.4-3.8-3.4-4
		c-1.2-0.1-29.4-1.8-35.8,17.3c-0.5,1.5-2.9,2.7-6.1,3.1c-6.5,0.9-15.7-1.8-19.9-8.2c-4-6.1-2.8-14.8,3.5-25.2
		c1.1-1.8,0.5-4-1.2-5.1c-1.8-1.1-4-0.5-5.1,1.2C0,100.3,2.6,111,6.5,117.1c5.2,8,15.3,11.7,23.8,11.7c1.1,0,2.3-0.1,3.4-0.2
		c6.3-0.8,10.7-3.8,12.1-8.2C50.4,106.8,73.8,108.2,74.1,108.2z"/>
</g>
</svg>
